<svg xmlns="http://www.w3.org/2000/svg" width="32" height="32" viewBox="0 0 24 24"><rect width="24" height="24" ry="4.355" style="fill:#fff;stroke-width:.796159"/><path fill="currentColor" d="M18.384 2.88H5.616A2.736 2.736 0 0 0 2.88 5.616v9.12a2.736 2.736 0 0 0 2.736 2.736h10.57l3.375 3.384a.91.91 0 0 0 .647.264.8.8 0 0 0 .347-.073.91.91 0 0 0 .565-.839V5.616a2.736 2.736 0 0 0-2.736-2.736M6.318 15.648h-.702a.91.91 0 0 1-.912-.912v-.383l3.01-3a.91.91 0 0 1 1.285 0l.794.793zm12.978 2.362-2.088-2.097a.91.91 0 0 0-.648-.265H8.89l6.12-6.12a.91.91 0 0 1 1.277 0l3.01 3.001zm0-8.053-1.714-1.705a2.736 2.736 0 0 0-3.867 0l-2.627 2.617-.803-.793a2.79 2.79 0 0 0-3.867 0L4.704 11.78V5.616a.91.91 0 0 1 .912-.912h12.768a.91.91 0 0 1 .912.912z" style="stroke-width:.912027"/></svg>